<mxfile host="app.diagrams.net" modified="2020-04-16T05:19:02.719Z" agent="5.0 (Windows NT 10.0; Win64; x64) AppleWebKit/537.36 (KHTML, like Gecko) Chrome/81.0.4044.113 Safari/537.36" etag="E8Nsreu-2p6xmcIwvaqw" version="12.9.12" type="github">
  <diagram id="Lkw97c_AgVh8HSc2BfMV" name="Page-1">
    <mxGraphModel dx="3032" dy="1098" grid="1" gridSize="10" guides="1" tooltips="1" connect="1" arrows="1" fold="1" page="1" pageScale="1" pageWidth="827" pageHeight="1169" math="0" shadow="0">
      <root>
        <mxCell id="0" />
        <mxCell id="1" parent="0" />
        <mxCell id="LtJeP3wDyuZseLfdFHoN-126" value="" style="edgeStyle=orthogonalEdgeStyle;rounded=0;orthogonalLoop=1;jettySize=auto;html=1;" parent="1" source="JAnyshooGYFaPs62bja3-1" edge="1">
          <mxGeometry relative="1" as="geometry">
            <mxPoint x="600" y="395" as="targetPoint" />
          </mxGeometry>
        </mxCell>
        <mxCell id="JAnyshooGYFaPs62bja3-1" value="" style="rounded=1;whiteSpace=wrap;html=1;fillColor=none;fontSize=20;fontFamily=Times New Roman;strokeColor=#000000;strokeWidth=2;" parent="1" vertex="1">
          <mxGeometry x="444.75" y="260" width="83" height="270.5" as="geometry" />
        </mxCell>
        <mxCell id="JAnyshooGYFaPs62bja3-3" value="" style="rounded=1;whiteSpace=wrap;html=1;fillColor=none;fontSize=20;fontFamily=Times New Roman;strokeColor=#000000;strokeWidth=2;" parent="1" vertex="1">
          <mxGeometry x="120" y="315" width="299" height="137" as="geometry" />
        </mxCell>
        <mxCell id="JAnyshooGYFaPs62bja3-4" value="" style="endArrow=classic;html=1;exitX=0.25;exitY=0;exitDx=0;exitDy=0;entryX=0.25;entryY=1;entryDx=0;entryDy=0;strokeColor=#000000;fontFamily=Times New Roman;fontSize=20;" parent="1" edge="1">
          <mxGeometry width="50" height="50" relative="1" as="geometry">
            <mxPoint x="506.49999999999955" y="347.5" as="sourcePoint" />
            <mxPoint x="506.49999999999955" y="361.5" as="targetPoint" />
          </mxGeometry>
        </mxCell>
        <mxCell id="JAnyshooGYFaPs62bja3-9" value="" style="edgeStyle=orthogonalEdgeStyle;rounded=0;orthogonalLoop=1;jettySize=auto;html=1;fontFamily=Times New Roman;fontSize=20;" parent="1" source="JAnyshooGYFaPs62bja3-10" target="JAnyshooGYFaPs62bja3-12" edge="1">
          <mxGeometry relative="1" as="geometry" />
        </mxCell>
        <mxCell id="JAnyshooGYFaPs62bja3-10" value="池化" style="rounded=0;whiteSpace=wrap;html=1;fillColor=none;fontSize=20;fontFamily=Times New Roman;strokeColor=#000000;" parent="1" vertex="1">
          <mxGeometry x="178.5" y="354.5" width="50" height="60" as="geometry" />
        </mxCell>
        <mxCell id="LtJeP3wDyuZseLfdFHoN-124" value="" style="edgeStyle=orthogonalEdgeStyle;rounded=0;orthogonalLoop=1;jettySize=auto;html=1;" parent="1" source="JAnyshooGYFaPs62bja3-12" edge="1">
          <mxGeometry relative="1" as="geometry">
            <mxPoint x="600" y="573" as="targetPoint" />
          </mxGeometry>
        </mxCell>
        <mxCell id="JAnyshooGYFaPs62bja3-12" value="池化" style="rounded=0;whiteSpace=wrap;html=1;fillColor=none;fontSize=20;fontFamily=Times New Roman;strokeColor=#000000;" parent="1" vertex="1">
          <mxGeometry x="178.5" y="543" width="50" height="60" as="geometry" />
        </mxCell>
        <mxCell id="LtJeP3wDyuZseLfdFHoN-128" value="" style="edgeStyle=orthogonalEdgeStyle;rounded=0;orthogonalLoop=1;jettySize=auto;html=1;" parent="1" source="JAnyshooGYFaPs62bja3-15" edge="1">
          <mxGeometry relative="1" as="geometry">
            <mxPoint x="600" y="550" as="targetPoint" />
            <Array as="points">
              <mxPoint x="378" y="550" />
            </Array>
          </mxGeometry>
        </mxCell>
        <mxCell id="JAnyshooGYFaPs62bja3-15" value="池化" style="rounded=0;whiteSpace=wrap;html=1;fillColor=none;fontSize=20;fontFamily=Times New Roman;strokeColor=#000000;" parent="1" vertex="1">
          <mxGeometry x="353" y="354.5" width="50" height="60" as="geometry" />
        </mxCell>
        <mxCell id="JAnyshooGYFaPs62bja3-16" value="CNN网络" style="text;html=1;strokeColor=none;fillColor=none;align=center;verticalAlign=middle;whiteSpace=wrap;rounded=0;fontSize=20;fontFamily=Times New Roman;" parent="1" vertex="1">
          <mxGeometry x="258.5" y="313" width="120" height="40" as="geometry" />
        </mxCell>
        <mxCell id="JAnyshooGYFaPs62bja3-34" value="均值池化特征" style="rounded=1;whiteSpace=wrap;html=1;fillColor=none;fontSize=20;fontFamily=Times New Roman;strokeColor=#000000;strokeWidth=1;" parent="1" vertex="1">
          <mxGeometry x="907.75" y="423.5" width="50" height="190" as="geometry" />
        </mxCell>
        <mxCell id="JAnyshooGYFaPs62bja3-35" value="" style="shape=cross;whiteSpace=wrap;html=1;fillColor=none;fontSize=20;fontFamily=Times New Roman;strokeColor=#000000;" parent="1" vertex="1">
          <mxGeometry x="959.75" y="487.5" width="30" height="35" as="geometry" />
        </mxCell>
        <mxCell id="JAnyshooGYFaPs62bja3-36" value="优势特征" style="rounded=1;whiteSpace=wrap;html=1;fillColor=none;fontSize=20;fontFamily=Times New Roman;strokeColor=#000000;" parent="1" vertex="1">
          <mxGeometry x="992.7500000000001" y="421.5" width="50" height="190" as="geometry" />
        </mxCell>
        <mxCell id="JAnyshooGYFaPs62bja3-37" value="全连接层&lt;br style=&quot;font-size: 20px;&quot;&gt;+&lt;br style=&quot;font-size: 20px;&quot;&gt;soft&lt;br style=&quot;font-size: 20px;&quot;&gt;max&lt;br style=&quot;font-size: 20px;&quot;&gt;层" style="rounded=1;whiteSpace=wrap;html=1;fillColor=none;fontSize=20;fontFamily=Times New Roman;strokeColor=#000000;" parent="1" vertex="1">
          <mxGeometry x="1240.75" y="421.5" width="50" height="190" as="geometry" />
        </mxCell>
        <mxCell id="JAnyshooGYFaPs62bja3-38" value="行为&lt;br style=&quot;font-size: 20px&quot;&gt;类别输出" style="rounded=1;whiteSpace=wrap;html=1;fillColor=none;fontSize=20;fontFamily=Times New Roman;strokeColor=#000000;" parent="1" vertex="1">
          <mxGeometry x="1393" y="500" width="50" height="190" as="geometry" />
        </mxCell>
        <mxCell id="JAnyshooGYFaPs62bja3-39" value="" style="shape=flexArrow;endArrow=classic;html=1;fontFamily=Times New Roman;strokeColor=#000000;fontSize=20;" parent="1" edge="1">
          <mxGeometry width="50" height="50" relative="1" as="geometry">
            <mxPoint x="1142.75" y="508" as="sourcePoint" />
            <mxPoint x="1171.75" y="508" as="targetPoint" />
          </mxGeometry>
        </mxCell>
        <mxCell id="JAnyshooGYFaPs62bja3-40" value="BLSTM网络" style="text;html=1;strokeColor=none;fillColor=none;align=center;verticalAlign=middle;whiteSpace=wrap;rounded=0;fontSize=20;fontFamily=Times New Roman;" parent="1" vertex="1">
          <mxGeometry x="456.25" y="276.5" width="59" height="20" as="geometry" />
        </mxCell>
        <mxCell id="JAnyshooGYFaPs62bja3-42" value="传感器数据" style="rounded=0;whiteSpace=wrap;html=1;fillColor=none;fontSize=20;fontFamily=Times New Roman;strokeColor=#000000;" parent="1" vertex="1">
          <mxGeometry x="-20.5" y="357.5" width="118" height="62.5" as="geometry" />
        </mxCell>
        <mxCell id="JAnyshooGYFaPs62bja3-45" value="&lt;b style=&quot;font-size: 20px;&quot;&gt;&lt;font style=&quot;font-size: 20px;&quot;&gt;…&lt;/font&gt;&lt;/b&gt;" style="text;html=1;strokeColor=none;fillColor=none;align=center;verticalAlign=middle;whiteSpace=wrap;rounded=0;fontFamily=Times New Roman;fontSize=20;direction=west;rotation=90;" parent="1" vertex="1">
          <mxGeometry x="477.25" y="426.5" width="17" height="13" as="geometry" />
        </mxCell>
        <mxCell id="JAnyshooGYFaPs62bja3-46" value="输入数据" style="text;html=1;strokeColor=none;fillColor=none;align=center;verticalAlign=middle;whiteSpace=wrap;rounded=0;fontFamily=Times New Roman;fontSize=20;" parent="1" vertex="1">
          <mxGeometry x="-11.5" y="324.5" width="100" height="20" as="geometry" />
        </mxCell>
        <mxCell id="JAnyshooGYFaPs62bja3-49" value="BLSTM" style="rounded=0;whiteSpace=wrap;html=1;fillColor=none;fontFamily=Times New Roman;fontSize=20;strokeColor=#000000;" parent="1" vertex="1">
          <mxGeometry x="452.25" y="442" width="73.5" height="27.5" as="geometry" />
        </mxCell>
        <mxCell id="JAnyshooGYFaPs62bja3-54" value="" style="shape=flexArrow;endArrow=classic;html=1;fontFamily=Times New Roman;strokeColor=#000000;fontSize=20;" parent="1" edge="1">
          <mxGeometry width="50" height="50" relative="1" as="geometry">
            <mxPoint x="883.2499999999995" y="508" as="sourcePoint" />
            <mxPoint x="912.25" y="508" as="targetPoint" />
          </mxGeometry>
        </mxCell>
        <mxCell id="JAnyshooGYFaPs62bja3-55" value="" style="shape=flexArrow;endArrow=classic;html=1;fontFamily=Times New Roman;strokeColor=#000000;fontSize=20;" parent="1" edge="1">
          <mxGeometry width="50" height="50" relative="1" as="geometry">
            <mxPoint x="413.4999999999991" y="385.5" as="sourcePoint" />
            <mxPoint x="442.5" y="385.5" as="targetPoint" />
          </mxGeometry>
        </mxCell>
        <mxCell id="JAnyshooGYFaPs62bja3-56" value="" style="shape=flexArrow;endArrow=classic;html=1;fontFamily=Times New Roman;fontSize=20;" parent="1" edge="1">
          <mxGeometry width="50" height="50" relative="1" as="geometry">
            <mxPoint x="99.49999999999955" y="386.5" as="sourcePoint" />
            <mxPoint x="128.5" y="386.5" as="targetPoint" />
          </mxGeometry>
        </mxCell>
        <mxCell id="JAnyshooGYFaPs62bja3-57" value="" style="shape=flexArrow;endArrow=classic;html=1;fontFamily=Times New Roman;fontSize=20;" parent="1" edge="1">
          <mxGeometry width="50" height="50" relative="1" as="geometry">
            <mxPoint x="228.49999999999955" y="385.5" as="sourcePoint" />
            <mxPoint x="253.5" y="385.5" as="targetPoint" />
          </mxGeometry>
        </mxCell>
        <mxCell id="JAnyshooGYFaPs62bja3-59" value="" style="endArrow=classic;html=1;exitX=0.25;exitY=0;exitDx=0;exitDy=0;entryX=0.25;entryY=1;entryDx=0;entryDy=0;strokeColor=#000000;fontFamily=Times New Roman;fontSize=20;" parent="1" edge="1">
          <mxGeometry width="50" height="50" relative="1" as="geometry">
            <mxPoint x="470" y="361.5" as="sourcePoint" />
            <mxPoint x="470" y="347.5" as="targetPoint" />
          </mxGeometry>
        </mxCell>
        <mxCell id="JAnyshooGYFaPs62bja3-61" value="" style="endArrow=classic;html=1;exitX=0.25;exitY=0;exitDx=0;exitDy=0;entryX=0.25;entryY=1;entryDx=0;entryDy=0;strokeColor=#000000;fontFamily=Times New Roman;fontSize=20;" parent="1" edge="1">
          <mxGeometry width="50" height="50" relative="1" as="geometry">
            <mxPoint x="469.5" y="484.5" as="sourcePoint" />
            <mxPoint x="469.5" y="470.5" as="targetPoint" />
          </mxGeometry>
        </mxCell>
        <mxCell id="JAnyshooGYFaPs62bja3-63" value="" style="endArrow=classic;html=1;exitX=0.25;exitY=0;exitDx=0;exitDy=0;entryX=0.25;entryY=1;entryDx=0;entryDy=0;strokeColor=#000000;fontFamily=Times New Roman;fontSize=20;" parent="1" edge="1">
          <mxGeometry width="50" height="50" relative="1" as="geometry">
            <mxPoint x="509.49999999999955" y="470.5" as="sourcePoint" />
            <mxPoint x="509.49999999999955" y="484.5" as="targetPoint" />
          </mxGeometry>
        </mxCell>
        <mxCell id="JAnyshooGYFaPs62bja3-65" value="特征融合" style="text;html=1;strokeColor=none;fillColor=none;align=center;verticalAlign=middle;whiteSpace=wrap;rounded=0;fontSize=20;fontFamily=Times New Roman;" parent="1" vertex="1">
          <mxGeometry x="925.75" y="393" width="102.5" height="20" as="geometry" />
        </mxCell>
        <mxCell id="JAnyshooGYFaPs62bja3-66" value="融合特征向量" style="rounded=1;whiteSpace=wrap;html=1;fillColor=none;fontSize=20;fontFamily=Times New Roman;strokeColor=#000000;" parent="1" vertex="1">
          <mxGeometry x="1168.75" y="421.5" width="50" height="190" as="geometry" />
        </mxCell>
        <mxCell id="JAnyshooGYFaPs62bja3-68" value="" style="rounded=1;whiteSpace=wrap;html=1;fillColor=none;strokeWidth=2;fontFamily=Times New Roman;fontSize=20;" parent="1" vertex="1">
          <mxGeometry x="904" y="393" width="241.25" height="240" as="geometry" />
        </mxCell>
        <mxCell id="JAnyshooGYFaPs62bja3-71" value="卷积" style="rounded=0;whiteSpace=wrap;html=1;fillColor=none;fontSize=20;fontFamily=Times New Roman;strokeColor=#000000;" parent="1" vertex="1">
          <mxGeometry x="128.5" y="354.5" width="50" height="60" as="geometry" />
        </mxCell>
        <mxCell id="JAnyshooGYFaPs62bja3-72" value="卷积" style="rounded=0;whiteSpace=wrap;html=1;fillColor=none;fontSize=20;fontFamily=Times New Roman;strokeColor=#000000;" parent="1" vertex="1">
          <mxGeometry x="303" y="355" width="50" height="60" as="geometry" />
        </mxCell>
        <mxCell id="JAnyshooGYFaPs62bja3-73" value="卷积" style="rounded=0;whiteSpace=wrap;html=1;fillColor=none;fontSize=20;fontFamily=Times New Roman;strokeColor=#000000;" parent="1" vertex="1">
          <mxGeometry x="253.5" y="355" width="50" height="60" as="geometry" />
        </mxCell>
        <mxCell id="JAnyshooGYFaPs62bja3-98" value="" style="rounded=1;whiteSpace=wrap;html=1;fillColor=none;fontFamily=Times New Roman;fontSize=20;strokeColor=#000000;strokeWidth=2;" parent="1" vertex="1">
          <mxGeometry x="672.5" y="369.5" width="215" height="260" as="geometry" />
        </mxCell>
        <mxCell id="JAnyshooGYFaPs62bja3-99" value="&lt;font style=&quot;font-size: 20px;&quot;&gt;特征图&lt;br style=&quot;font-size: 20px;&quot;&gt;1&lt;/font&gt;" style="shape=cube;whiteSpace=wrap;html=1;boundedLbl=1;backgroundOutline=1;darkOpacity=0;darkOpacity2=0;fillColor=none;direction=south;size=11;fontFamily=Times New Roman;strokeColor=#000000;strokeWidth=1;fontSize=20;" parent="1" vertex="1">
          <mxGeometry x="709.5" y="434" width="35" height="190" as="geometry" />
        </mxCell>
        <mxCell id="JAnyshooGYFaPs62bja3-100" value="&lt;font style=&quot;font-size: 20px;&quot;&gt;特征图&lt;br style=&quot;font-size: 20px;&quot;&gt;&lt;i style=&quot;font-size: 20px;&quot;&gt;i&lt;/i&gt;&lt;/font&gt;" style="shape=cube;whiteSpace=wrap;html=1;boundedLbl=1;backgroundOutline=1;darkOpacity=0;darkOpacity2=0;fillColor=none;direction=south;size=11;fontStyle=0;fontFamily=Times New Roman;strokeColor=#000000;fontSize=20;" parent="1" vertex="1">
          <mxGeometry x="776.5" y="434" width="35" height="190" as="geometry" />
        </mxCell>
        <mxCell id="JAnyshooGYFaPs62bja3-101" value="&lt;font style=&quot;font-size: 20px;&quot;&gt;特征图&lt;br style=&quot;font-size: 20px;&quot;&gt;160&lt;br style=&quot;font-size: 20px;&quot;&gt;&lt;/font&gt;" style="shape=cube;whiteSpace=wrap;html=1;boundedLbl=1;backgroundOutline=1;darkOpacity=0;darkOpacity2=0;fillColor=none;direction=south;size=11;fontStyle=0;fontFamily=Times New Roman;strokeColor=#000000;fontSize=20;" parent="1" vertex="1">
          <mxGeometry x="843.5" y="434" width="35" height="190" as="geometry" />
        </mxCell>
        <mxCell id="JAnyshooGYFaPs62bja3-102" value="" style="shape=curlyBracket;whiteSpace=wrap;html=1;rounded=1;fillColor=none;fontSize=20;fontFamily=Times New Roman;strokeColor=#000000;" parent="1" vertex="1">
          <mxGeometry x="683.5" y="444" width="20" height="175" as="geometry" />
        </mxCell>
        <mxCell id="JAnyshooGYFaPs62bja3-103" value="50" style="text;html=1;resizable=0;points=[];autosize=1;align=left;verticalAlign=top;spacingTop=-4;fontSize=20;fontFamily=Times New Roman;" parent="1" vertex="1">
          <mxGeometry x="671" y="534" width="40" height="30" as="geometry" />
        </mxCell>
        <mxCell id="JAnyshooGYFaPs62bja3-104" value="" style="shape=curlyBracket;whiteSpace=wrap;html=1;rounded=1;fillColor=none;fontSize=20;direction=south;fontFamily=Times New Roman;strokeColor=#000000;" parent="1" vertex="1">
          <mxGeometry x="715.5" y="408" width="158" height="20" as="geometry" />
        </mxCell>
        <mxCell id="JAnyshooGYFaPs62bja3-105" value="多尺度特征向量&amp;nbsp; 160" style="text;html=1;resizable=0;points=[];autosize=1;align=left;verticalAlign=top;spacingTop=-4;fontSize=20;fontFamily=Times New Roman;" parent="1" vertex="1">
          <mxGeometry x="687" y="376" width="200" height="30" as="geometry" />
        </mxCell>
        <mxCell id="JAnyshooGYFaPs62bja3-106" value="" style="endArrow=none;dashed=1;html=1;fontSize=20;entryX=0;entryY=0;entryDx=11;entryDy=35;entryPerimeter=0;exitX=0;exitY=0;exitDx=11;exitDy=35;exitPerimeter=0;fontFamily=Times New Roman;strokeColor=#000000;" parent="1" source="JAnyshooGYFaPs62bja3-101" target="JAnyshooGYFaPs62bja3-99" edge="1">
          <mxGeometry width="50" height="50" relative="1" as="geometry">
            <mxPoint x="466.5" y="433" as="sourcePoint" />
            <mxPoint x="708.5" y="439" as="targetPoint" />
          </mxGeometry>
        </mxCell>
        <mxCell id="JAnyshooGYFaPs62bja3-107" value="" style="endArrow=none;dashed=1;html=1;fontSize=20;entryX=0;entryY=0;entryDx=0;entryDy=24;entryPerimeter=0;exitX=0;exitY=0;exitDx=0;exitDy=24;exitPerimeter=0;fontFamily=Times New Roman;strokeColor=#000000;" parent="1" source="JAnyshooGYFaPs62bja3-101" target="JAnyshooGYFaPs62bja3-99" edge="1">
          <mxGeometry width="50" height="50" relative="1" as="geometry">
            <mxPoint x="588.5" y="449" as="sourcePoint" />
            <mxPoint x="638.5" y="399" as="targetPoint" />
          </mxGeometry>
        </mxCell>
        <mxCell id="JAnyshooGYFaPs62bja3-108" value="" style="endArrow=none;dashed=1;html=1;fontSize=20;entryX=0.149;entryY=1;entryDx=0;entryDy=0;entryPerimeter=0;exitX=0.149;exitY=0.286;exitDx=0;exitDy=0;exitPerimeter=0;fontFamily=Times New Roman;strokeColor=#000000;" parent="1" edge="1">
          <mxGeometry width="50" height="50" relative="1" as="geometry">
            <mxPoint x="868.4899999999998" y="465.30999999999995" as="sourcePoint" />
            <mxPoint x="709.4999999999995" y="465.30999999999995" as="targetPoint" />
          </mxGeometry>
        </mxCell>
        <mxCell id="JAnyshooGYFaPs62bja3-109" value="" style="endArrow=none;dashed=1;html=1;fontSize=20;entryX=0.112;entryY=0.009;entryDx=0;entryDy=0;entryPerimeter=0;exitX=0.114;exitY=0.743;exitDx=0;exitDy=0;exitPerimeter=0;fontFamily=Times New Roman;strokeColor=#000000;" parent="1" source="JAnyshooGYFaPs62bja3-99" target="JAnyshooGYFaPs62bja3-101" edge="1">
          <mxGeometry width="50" height="50" relative="1" as="geometry">
            <mxPoint x="608.5" y="469" as="sourcePoint" />
            <mxPoint x="658.5" y="419" as="targetPoint" />
          </mxGeometry>
        </mxCell>
        <mxCell id="JAnyshooGYFaPs62bja3-110" value="" style="endArrow=none;dashed=1;html=1;fontSize=20;fontFamily=Times New Roman;strokeColor=#000000;" parent="1" edge="1">
          <mxGeometry width="50" height="50" relative="1" as="geometry">
            <mxPoint x="709.4999999999995" y="604" as="sourcePoint" />
            <mxPoint x="868.5" y="604" as="targetPoint" />
          </mxGeometry>
        </mxCell>
        <mxCell id="JAnyshooGYFaPs62bja3-111" value="" style="endArrow=none;dashed=1;html=1;fontSize=20;fontFamily=Times New Roman;strokeColor=#000000;" parent="1" edge="1">
          <mxGeometry width="50" height="50" relative="1" as="geometry">
            <mxPoint x="709.4999999999995" y="624" as="sourcePoint" />
            <mxPoint x="868.5" y="624" as="targetPoint" />
          </mxGeometry>
        </mxCell>
        <mxCell id="JAnyshooGYFaPs62bja3-112" value="" style="endArrow=none;dashed=1;html=1;fontSize=20;fontFamily=Times New Roman;strokeColor=#000000;" parent="1" edge="1">
          <mxGeometry width="50" height="50" relative="1" as="geometry">
            <mxPoint x="719.4999999999995" y="594" as="sourcePoint" />
            <mxPoint x="878.5" y="594" as="targetPoint" />
          </mxGeometry>
        </mxCell>
        <mxCell id="JAnyshooGYFaPs62bja3-113" value="" style="endArrow=none;html=1;fontSize=20;fontFamily=Times New Roman;strokeColor=#000000;" parent="1" edge="1">
          <mxGeometry width="50" height="50" relative="1" as="geometry">
            <mxPoint x="868.5" y="465.5" as="sourcePoint" />
            <mxPoint x="878.5" y="455.5" as="targetPoint" />
          </mxGeometry>
        </mxCell>
        <mxCell id="JAnyshooGYFaPs62bja3-114" value="" style="endArrow=none;dashed=1;html=1;fontSize=20;fontFamily=Times New Roman;strokeColor=#000000;" parent="1" edge="1">
          <mxGeometry width="50" height="50" relative="1" as="geometry">
            <mxPoint x="709.4999999999995" y="465.5" as="sourcePoint" />
            <mxPoint x="719.4999999999995" y="455.5" as="targetPoint" />
          </mxGeometry>
        </mxCell>
        <mxCell id="JAnyshooGYFaPs62bja3-115" value="" style="endArrow=none;dashed=1;html=1;fontSize=20;fontFamily=Times New Roman;strokeColor=#000000;" parent="1" edge="1">
          <mxGeometry width="50" height="50" relative="1" as="geometry">
            <mxPoint x="709.4999999999995" y="604" as="sourcePoint" />
            <mxPoint x="719.4999999999995" y="594" as="targetPoint" />
          </mxGeometry>
        </mxCell>
        <mxCell id="JAnyshooGYFaPs62bja3-116" value="" style="endArrow=none;html=1;fontSize=20;fontFamily=Times New Roman;strokeColor=#000000;" parent="1" edge="1">
          <mxGeometry width="50" height="50" relative="1" as="geometry">
            <mxPoint x="867.5000000000005" y="604" as="sourcePoint" />
            <mxPoint x="877.5000000000005" y="594" as="targetPoint" />
          </mxGeometry>
        </mxCell>
        <mxCell id="JAnyshooGYFaPs62bja3-117" value="" style="endArrow=none;dashed=1;html=1;fontSize=20;entryX=0.149;entryY=1;entryDx=0;entryDy=0;entryPerimeter=0;exitX=0.149;exitY=0.286;exitDx=0;exitDy=0;exitPerimeter=0;fontFamily=Times New Roman;strokeColor=#000000;" parent="1" edge="1">
          <mxGeometry width="50" height="50" relative="1" as="geometry">
            <mxPoint x="867.5000000000005" y="483.30999999999995" as="sourcePoint" />
            <mxPoint x="709.4999999999995" y="483.30999999999995" as="targetPoint" />
          </mxGeometry>
        </mxCell>
        <mxCell id="JAnyshooGYFaPs62bja3-118" value="&lt;b style=&quot;font-size: 20px;&quot;&gt;…&lt;/b&gt;" style="text;html=1;strokeColor=none;fillColor=none;align=center;verticalAlign=middle;whiteSpace=wrap;rounded=0;fontFamily=Times New Roman;fontSize=20;direction=west;" parent="1" vertex="1">
          <mxGeometry x="803.5" y="516.5" width="40" height="20" as="geometry" />
        </mxCell>
        <mxCell id="JAnyshooGYFaPs62bja3-119" value="&lt;b style=&quot;font-size: 20px;&quot;&gt;…&lt;/b&gt;" style="text;html=1;strokeColor=none;fillColor=none;align=center;verticalAlign=middle;whiteSpace=wrap;rounded=0;fontFamily=Times New Roman;fontSize=20;direction=west;" parent="1" vertex="1">
          <mxGeometry x="737" y="516.5" width="40" height="20" as="geometry" />
        </mxCell>
        <mxCell id="JAnyshooGYFaPs62bja3-125" value="BLSTM" style="rounded=0;whiteSpace=wrap;html=1;fillColor=none;fontFamily=Times New Roman;fontSize=20;strokeColor=#000000;" parent="1" vertex="1">
          <mxGeometry x="452.25" y="485.75" width="73.5" height="27.5" as="geometry" />
        </mxCell>
        <mxCell id="JAnyshooGYFaPs62bja3-128" value="BLSTM" style="rounded=0;whiteSpace=wrap;html=1;fillColor=none;fontFamily=Times New Roman;fontSize=20;strokeColor=#000000;" parent="1" vertex="1">
          <mxGeometry x="452.25" y="318.5" width="73.5" height="27.5" as="geometry" />
        </mxCell>
        <mxCell id="JAnyshooGYFaPs62bja3-129" value="BLSTM" style="rounded=0;whiteSpace=wrap;html=1;fillColor=none;fontFamily=Times New Roman;fontSize=20;strokeColor=#000000;" parent="1" vertex="1">
          <mxGeometry x="452.25" y="361.5" width="73.5" height="27.5" as="geometry" />
        </mxCell>
        <mxCell id="LtJeP3wDyuZseLfdFHoN-1" value="" style="rounded=1;whiteSpace=wrap;html=1;fillColor=none;fontSize=20;fontFamily=Times New Roman;strokeColor=#000000;strokeWidth=2;" parent="1" vertex="1">
          <mxGeometry x="795.5" y="1390" width="83" height="270.5" as="geometry" />
        </mxCell>
        <mxCell id="LtJeP3wDyuZseLfdFHoN-2" value="" style="rounded=1;whiteSpace=wrap;html=1;fillColor=none;fontFamily=Times New Roman;fontSize=20;strokeColor=#000000;strokeWidth=2;" parent="1" vertex="1">
          <mxGeometry x="553" y="1392.75" width="215" height="260" as="geometry" />
        </mxCell>
        <mxCell id="LtJeP3wDyuZseLfdFHoN-3" value="" style="rounded=1;whiteSpace=wrap;html=1;fillColor=none;fontSize=20;fontFamily=Times New Roman;strokeColor=#000000;strokeWidth=2;" parent="1" vertex="1">
          <mxGeometry x="243.5" y="1462" width="299" height="137" as="geometry" />
        </mxCell>
        <mxCell id="LtJeP3wDyuZseLfdFHoN-4" value="" style="endArrow=classic;html=1;exitX=0.25;exitY=0;exitDx=0;exitDy=0;entryX=0.25;entryY=1;entryDx=0;entryDy=0;strokeColor=#000000;fontFamily=Times New Roman;fontSize=20;" parent="1" edge="1">
          <mxGeometry width="50" height="50" relative="1" as="geometry">
            <mxPoint x="857.2499999999995" y="1477.5" as="sourcePoint" />
            <mxPoint x="857.2499999999995" y="1491.5" as="targetPoint" />
          </mxGeometry>
        </mxCell>
        <mxCell id="LtJeP3wDyuZseLfdFHoN-5" value="&lt;font style=&quot;font-size: 20px;&quot;&gt;特征图&lt;br style=&quot;font-size: 20px;&quot;&gt;1&lt;/font&gt;" style="shape=cube;whiteSpace=wrap;html=1;boundedLbl=1;backgroundOutline=1;darkOpacity=0;darkOpacity2=0;fillColor=none;direction=south;size=11;fontFamily=Times New Roman;strokeColor=#000000;strokeWidth=1;fontSize=20;" parent="1" vertex="1">
          <mxGeometry x="591.5" y="1452" width="35" height="190" as="geometry" />
        </mxCell>
        <mxCell id="LtJeP3wDyuZseLfdFHoN-6" value="&lt;font style=&quot;font-size: 20px;&quot;&gt;特征图&lt;br style=&quot;font-size: 20px;&quot;&gt;&lt;i style=&quot;font-size: 20px;&quot;&gt;i&lt;/i&gt;&lt;/font&gt;" style="shape=cube;whiteSpace=wrap;html=1;boundedLbl=1;backgroundOutline=1;darkOpacity=0;darkOpacity2=0;fillColor=none;direction=south;size=11;fontStyle=0;fontFamily=Times New Roman;strokeColor=#000000;fontSize=20;" parent="1" vertex="1">
          <mxGeometry x="658.5" y="1452" width="35" height="190" as="geometry" />
        </mxCell>
        <mxCell id="LtJeP3wDyuZseLfdFHoN-7" value="&lt;font style=&quot;font-size: 20px;&quot;&gt;特征图&lt;br style=&quot;font-size: 20px;&quot;&gt;32&lt;/font&gt;" style="shape=cube;whiteSpace=wrap;html=1;boundedLbl=1;backgroundOutline=1;darkOpacity=0;darkOpacity2=0;fillColor=none;direction=south;size=11;fontStyle=0;fontFamily=Times New Roman;strokeColor=#000000;fontSize=20;" parent="1" vertex="1">
          <mxGeometry x="725.5" y="1452" width="35" height="190" as="geometry" />
        </mxCell>
        <mxCell id="LtJeP3wDyuZseLfdFHoN-8" value="" style="edgeStyle=orthogonalEdgeStyle;rounded=0;orthogonalLoop=1;jettySize=auto;html=1;fontFamily=Times New Roman;fontSize=20;" parent="1" source="LtJeP3wDyuZseLfdFHoN-9" target="LtJeP3wDyuZseLfdFHoN-11" edge="1">
          <mxGeometry relative="1" as="geometry" />
        </mxCell>
        <mxCell id="LtJeP3wDyuZseLfdFHoN-9" value="池化" style="rounded=0;whiteSpace=wrap;html=1;fillColor=none;fontSize=20;fontFamily=Times New Roman;strokeColor=#000000;" parent="1" vertex="1">
          <mxGeometry x="302" y="1501.5" width="50" height="60" as="geometry" />
        </mxCell>
        <mxCell id="LtJeP3wDyuZseLfdFHoN-10" value="" style="edgeStyle=orthogonalEdgeStyle;rounded=0;orthogonalLoop=1;jettySize=auto;html=1;fontFamily=Times New Roman;fontSize=20;" parent="1" source="LtJeP3wDyuZseLfdFHoN-11" edge="1">
          <mxGeometry relative="1" as="geometry">
            <mxPoint x="1133.4999999999995" y="1557" as="targetPoint" />
          </mxGeometry>
        </mxCell>
        <mxCell id="LtJeP3wDyuZseLfdFHoN-11" value="池化" style="rounded=0;whiteSpace=wrap;html=1;fillColor=none;fontSize=20;fontFamily=Times New Roman;strokeColor=#000000;" parent="1" vertex="1">
          <mxGeometry x="302" y="1717" width="50" height="60" as="geometry" />
        </mxCell>
        <mxCell id="LtJeP3wDyuZseLfdFHoN-12" value="" style="edgeStyle=orthogonalEdgeStyle;rounded=0;orthogonalLoop=1;jettySize=auto;html=1;fontFamily=Times New Roman;fontSize=20;" parent="1" source="LtJeP3wDyuZseLfdFHoN-13" edge="1">
          <mxGeometry relative="1" as="geometry">
            <mxPoint x="1133.4999999999995" y="1687.0000000000002" as="targetPoint" />
            <Array as="points">
              <mxPoint x="511.5" y="1687" />
            </Array>
          </mxGeometry>
        </mxCell>
        <mxCell id="LtJeP3wDyuZseLfdFHoN-13" value="池化" style="rounded=0;whiteSpace=wrap;html=1;fillColor=none;fontSize=20;fontFamily=Times New Roman;strokeColor=#000000;" parent="1" vertex="1">
          <mxGeometry x="476.5" y="1501.5" width="50" height="60" as="geometry" />
        </mxCell>
        <mxCell id="LtJeP3wDyuZseLfdFHoN-14" value="CNN网络" style="text;html=1;strokeColor=none;fillColor=none;align=center;verticalAlign=middle;whiteSpace=wrap;rounded=0;fontSize=20;fontFamily=Times New Roman;" parent="1" vertex="1">
          <mxGeometry x="382" y="1460" width="120" height="40" as="geometry" />
        </mxCell>
        <mxCell id="LtJeP3wDyuZseLfdFHoN-15" value="256*64*100" style="text;html=1;strokeColor=none;fillColor=none;align=center;verticalAlign=middle;whiteSpace=wrap;rounded=0;fontSize=20;fontFamily=Times New Roman;" parent="1" vertex="1">
          <mxGeometry x="313.5" y="1626.5" width="124" height="20" as="geometry" />
        </mxCell>
        <mxCell id="LtJeP3wDyuZseLfdFHoN-16" value="256*32*50" style="text;html=1;strokeColor=none;fillColor=none;align=center;verticalAlign=middle;whiteSpace=wrap;rounded=0;fontSize=20;fontFamily=Times New Roman;" parent="1" vertex="1">
          <mxGeometry x="512.5" y="1667" width="124" height="20" as="geometry" />
        </mxCell>
        <mxCell id="LtJeP3wDyuZseLfdFHoN-17" value="" style="shape=curlyBracket;whiteSpace=wrap;html=1;rounded=1;fillColor=none;fontSize=20;fontFamily=Times New Roman;strokeColor=#000000;" parent="1" vertex="1">
          <mxGeometry x="565.5" y="1462" width="20" height="175" as="geometry" />
        </mxCell>
        <mxCell id="LtJeP3wDyuZseLfdFHoN-18" value="50" style="text;html=1;resizable=0;points=[];autosize=1;align=left;verticalAlign=top;spacingTop=-4;fontSize=20;fontFamily=Times New Roman;" parent="1" vertex="1">
          <mxGeometry x="553" y="1552" width="40" height="30" as="geometry" />
        </mxCell>
        <mxCell id="LtJeP3wDyuZseLfdFHoN-19" value="" style="shape=curlyBracket;whiteSpace=wrap;html=1;rounded=1;fillColor=none;fontSize=20;direction=south;fontFamily=Times New Roman;strokeColor=#000000;" parent="1" vertex="1">
          <mxGeometry x="597.5" y="1426" width="158" height="20" as="geometry" />
        </mxCell>
        <mxCell id="LtJeP3wDyuZseLfdFHoN-20" value="特征向量&amp;nbsp; &amp;nbsp;32" style="text;html=1;resizable=0;points=[];autosize=1;align=left;verticalAlign=top;spacingTop=-4;fontSize=20;fontFamily=Times New Roman;" parent="1" vertex="1">
          <mxGeometry x="574" y="1396" width="130" height="30" as="geometry" />
        </mxCell>
        <mxCell id="LtJeP3wDyuZseLfdFHoN-21" value="" style="endArrow=none;dashed=1;html=1;fontSize=20;entryX=0;entryY=0;entryDx=11;entryDy=35;entryPerimeter=0;exitX=0;exitY=0;exitDx=11;exitDy=35;exitPerimeter=0;fontFamily=Times New Roman;strokeColor=#000000;" parent="1" source="LtJeP3wDyuZseLfdFHoN-7" target="LtJeP3wDyuZseLfdFHoN-5" edge="1">
          <mxGeometry width="50" height="50" relative="1" as="geometry">
            <mxPoint x="348.5" y="1451" as="sourcePoint" />
            <mxPoint x="590.5" y="1457" as="targetPoint" />
          </mxGeometry>
        </mxCell>
        <mxCell id="LtJeP3wDyuZseLfdFHoN-22" value="" style="endArrow=none;dashed=1;html=1;fontSize=20;entryX=0;entryY=0;entryDx=0;entryDy=24;entryPerimeter=0;exitX=0;exitY=0;exitDx=0;exitDy=24;exitPerimeter=0;fontFamily=Times New Roman;strokeColor=#000000;" parent="1" source="LtJeP3wDyuZseLfdFHoN-7" target="LtJeP3wDyuZseLfdFHoN-5" edge="1">
          <mxGeometry width="50" height="50" relative="1" as="geometry">
            <mxPoint x="470.5" y="1467" as="sourcePoint" />
            <mxPoint x="520.5" y="1417" as="targetPoint" />
          </mxGeometry>
        </mxCell>
        <mxCell id="LtJeP3wDyuZseLfdFHoN-23" value="" style="endArrow=none;dashed=1;html=1;fontSize=20;entryX=0.149;entryY=1;entryDx=0;entryDy=0;entryPerimeter=0;exitX=0.149;exitY=0.286;exitDx=0;exitDy=0;exitPerimeter=0;fontFamily=Times New Roman;strokeColor=#000000;" parent="1" edge="1">
          <mxGeometry width="50" height="50" relative="1" as="geometry">
            <mxPoint x="750.4899999999998" y="1483.31" as="sourcePoint" />
            <mxPoint x="591.5" y="1483.31" as="targetPoint" />
          </mxGeometry>
        </mxCell>
        <mxCell id="LtJeP3wDyuZseLfdFHoN-24" value="" style="endArrow=none;dashed=1;html=1;fontSize=20;entryX=0.112;entryY=0.009;entryDx=0;entryDy=0;entryPerimeter=0;exitX=0.114;exitY=0.743;exitDx=0;exitDy=0;exitPerimeter=0;fontFamily=Times New Roman;strokeColor=#000000;" parent="1" source="LtJeP3wDyuZseLfdFHoN-5" target="LtJeP3wDyuZseLfdFHoN-7" edge="1">
          <mxGeometry width="50" height="50" relative="1" as="geometry">
            <mxPoint x="490.5" y="1487" as="sourcePoint" />
            <mxPoint x="540.5" y="1437" as="targetPoint" />
          </mxGeometry>
        </mxCell>
        <mxCell id="LtJeP3wDyuZseLfdFHoN-25" value="" style="endArrow=none;dashed=1;html=1;fontSize=20;fontFamily=Times New Roman;strokeColor=#000000;" parent="1" edge="1">
          <mxGeometry width="50" height="50" relative="1" as="geometry">
            <mxPoint x="591.5" y="1622" as="sourcePoint" />
            <mxPoint x="750.5" y="1622" as="targetPoint" />
          </mxGeometry>
        </mxCell>
        <mxCell id="LtJeP3wDyuZseLfdFHoN-26" value="" style="endArrow=none;dashed=1;html=1;fontSize=20;fontFamily=Times New Roman;strokeColor=#000000;" parent="1" edge="1">
          <mxGeometry width="50" height="50" relative="1" as="geometry">
            <mxPoint x="591.5" y="1642" as="sourcePoint" />
            <mxPoint x="750.5" y="1642" as="targetPoint" />
          </mxGeometry>
        </mxCell>
        <mxCell id="LtJeP3wDyuZseLfdFHoN-27" value="" style="endArrow=none;dashed=1;html=1;fontSize=20;fontFamily=Times New Roman;strokeColor=#000000;" parent="1" edge="1">
          <mxGeometry width="50" height="50" relative="1" as="geometry">
            <mxPoint x="601.5" y="1612" as="sourcePoint" />
            <mxPoint x="760.5" y="1612" as="targetPoint" />
          </mxGeometry>
        </mxCell>
        <mxCell id="LtJeP3wDyuZseLfdFHoN-28" value="" style="endArrow=none;html=1;fontSize=20;fontFamily=Times New Roman;strokeColor=#000000;" parent="1" edge="1">
          <mxGeometry width="50" height="50" relative="1" as="geometry">
            <mxPoint x="750.5" y="1483.5" as="sourcePoint" />
            <mxPoint x="760.5" y="1473.5" as="targetPoint" />
          </mxGeometry>
        </mxCell>
        <mxCell id="LtJeP3wDyuZseLfdFHoN-29" value="" style="endArrow=none;dashed=1;html=1;fontSize=20;fontFamily=Times New Roman;strokeColor=#000000;" parent="1" edge="1">
          <mxGeometry width="50" height="50" relative="1" as="geometry">
            <mxPoint x="591.5" y="1483.5" as="sourcePoint" />
            <mxPoint x="601.5" y="1473.5" as="targetPoint" />
          </mxGeometry>
        </mxCell>
        <mxCell id="LtJeP3wDyuZseLfdFHoN-30" value="" style="endArrow=none;dashed=1;html=1;fontSize=20;fontFamily=Times New Roman;strokeColor=#000000;" parent="1" edge="1">
          <mxGeometry width="50" height="50" relative="1" as="geometry">
            <mxPoint x="591.5" y="1622" as="sourcePoint" />
            <mxPoint x="601.5" y="1612" as="targetPoint" />
          </mxGeometry>
        </mxCell>
        <mxCell id="LtJeP3wDyuZseLfdFHoN-31" value="" style="endArrow=none;html=1;fontSize=20;fontFamily=Times New Roman;strokeColor=#000000;" parent="1" edge="1">
          <mxGeometry width="50" height="50" relative="1" as="geometry">
            <mxPoint x="749.5" y="1622" as="sourcePoint" />
            <mxPoint x="759.5" y="1612" as="targetPoint" />
          </mxGeometry>
        </mxCell>
        <mxCell id="LtJeP3wDyuZseLfdFHoN-32" value="均值池化特征" style="rounded=1;whiteSpace=wrap;html=1;fillColor=none;fontSize=20;fontFamily=Times New Roman;strokeColor=#000000;strokeWidth=1;" parent="1" vertex="1">
          <mxGeometry x="1400" y="1444" width="50" height="190" as="geometry" />
        </mxCell>
        <mxCell id="LtJeP3wDyuZseLfdFHoN-33" value="" style="shape=cross;whiteSpace=wrap;html=1;fillColor=none;fontSize=20;fontFamily=Times New Roman;strokeColor=#000000;" parent="1" vertex="1">
          <mxGeometry x="1452" y="1508" width="30" height="35" as="geometry" />
        </mxCell>
        <mxCell id="LtJeP3wDyuZseLfdFHoN-34" value="优势特征" style="rounded=1;whiteSpace=wrap;html=1;fillColor=none;fontSize=20;fontFamily=Times New Roman;strokeColor=#000000;" parent="1" vertex="1">
          <mxGeometry x="1485" y="1442" width="50" height="190" as="geometry" />
        </mxCell>
        <mxCell id="LtJeP3wDyuZseLfdFHoN-35" value="全连接层&lt;br style=&quot;font-size: 20px;&quot;&gt;+&lt;br style=&quot;font-size: 20px;&quot;&gt;soft&lt;br style=&quot;font-size: 20px;&quot;&gt;max&lt;br style=&quot;font-size: 20px;&quot;&gt;层" style="rounded=1;whiteSpace=wrap;html=1;fillColor=none;fontSize=20;fontFamily=Times New Roman;strokeColor=#000000;" parent="1" vertex="1">
          <mxGeometry x="1626" y="1442" width="50" height="190" as="geometry" />
        </mxCell>
        <mxCell id="LtJeP3wDyuZseLfdFHoN-36" value="当前行为&lt;br style=&quot;font-size: 20px;&quot;&gt;类别输出" style="rounded=1;whiteSpace=wrap;html=1;fillColor=none;fontSize=20;fontFamily=Times New Roman;strokeColor=#000000;" parent="1" vertex="1">
          <mxGeometry x="1695" y="1442" width="50" height="190" as="geometry" />
        </mxCell>
        <mxCell id="LtJeP3wDyuZseLfdFHoN-37" value="" style="shape=flexArrow;endArrow=classic;html=1;fontFamily=Times New Roman;strokeColor=#000000;fontSize=20;" parent="1" edge="1">
          <mxGeometry width="50" height="50" relative="1" as="geometry">
            <mxPoint x="1529" y="1528.5" as="sourcePoint" />
            <mxPoint x="1558" y="1528.5" as="targetPoint" />
          </mxGeometry>
        </mxCell>
        <mxCell id="LtJeP3wDyuZseLfdFHoN-38" value="BLSTM网络" style="text;html=1;strokeColor=none;fillColor=none;align=center;verticalAlign=middle;whiteSpace=wrap;rounded=0;fontSize=20;fontFamily=Times New Roman;" parent="1" vertex="1">
          <mxGeometry x="807" y="1406.5" width="59" height="20" as="geometry" />
        </mxCell>
        <mxCell id="LtJeP3wDyuZseLfdFHoN-39" value="" style="endArrow=none;dashed=1;html=1;fontSize=20;entryX=0.149;entryY=1;entryDx=0;entryDy=0;entryPerimeter=0;exitX=0.149;exitY=0.286;exitDx=0;exitDy=0;exitPerimeter=0;fontFamily=Times New Roman;strokeColor=#000000;" parent="1" edge="1">
          <mxGeometry width="50" height="50" relative="1" as="geometry">
            <mxPoint x="749.5" y="1501.31" as="sourcePoint" />
            <mxPoint x="591.5" y="1501.31" as="targetPoint" />
          </mxGeometry>
        </mxCell>
        <mxCell id="LtJeP3wDyuZseLfdFHoN-40" value="传感器数据" style="rounded=0;whiteSpace=wrap;html=1;fillColor=none;fontSize=20;fontFamily=Times New Roman;strokeColor=#000000;" parent="1" vertex="1">
          <mxGeometry x="103" y="1514.5" width="118" height="40" as="geometry" />
        </mxCell>
        <mxCell id="LtJeP3wDyuZseLfdFHoN-41" value="&lt;b style=&quot;font-size: 20px;&quot;&gt;…&lt;/b&gt;" style="text;html=1;strokeColor=none;fillColor=none;align=center;verticalAlign=middle;whiteSpace=wrap;rounded=0;fontFamily=Times New Roman;fontSize=20;direction=west;" parent="1" vertex="1">
          <mxGeometry x="685.5" y="1534.5" width="40" height="20" as="geometry" />
        </mxCell>
        <mxCell id="LtJeP3wDyuZseLfdFHoN-42" value="&lt;b style=&quot;font-size: 20px;&quot;&gt;…&lt;/b&gt;" style="text;html=1;strokeColor=none;fillColor=none;align=center;verticalAlign=middle;whiteSpace=wrap;rounded=0;fontFamily=Times New Roman;fontSize=20;direction=west;" parent="1" vertex="1">
          <mxGeometry x="619" y="1534.5" width="40" height="20" as="geometry" />
        </mxCell>
        <mxCell id="LtJeP3wDyuZseLfdFHoN-43" value="&lt;b style=&quot;font-size: 20px;&quot;&gt;&lt;font style=&quot;font-size: 20px;&quot;&gt;…&lt;/font&gt;&lt;/b&gt;" style="text;html=1;strokeColor=none;fillColor=none;align=center;verticalAlign=middle;whiteSpace=wrap;rounded=0;fontFamily=Times New Roman;fontSize=20;direction=west;rotation=90;" parent="1" vertex="1">
          <mxGeometry x="828" y="1556.5" width="17" height="13" as="geometry" />
        </mxCell>
        <mxCell id="LtJeP3wDyuZseLfdFHoN-44" value="输入数据" style="text;html=1;strokeColor=none;fillColor=none;align=center;verticalAlign=middle;whiteSpace=wrap;rounded=0;fontFamily=Times New Roman;fontSize=20;" parent="1" vertex="1">
          <mxGeometry x="112" y="1464.5" width="100" height="20" as="geometry" />
        </mxCell>
        <mxCell id="LtJeP3wDyuZseLfdFHoN-45" value="" style="shape=flexArrow;endArrow=classic;html=1;fontFamily=Times New Roman;fontSize=20;width=7.5;endSize=7.986111111111111;endWidth=11.527777777777777;" parent="1" edge="1">
          <mxGeometry width="50" height="50" relative="1" as="geometry">
            <mxPoint x="757.5" y="1462" as="sourcePoint" />
            <mxPoint x="800.9999999999995" y="1462" as="targetPoint" />
          </mxGeometry>
        </mxCell>
        <mxCell id="LtJeP3wDyuZseLfdFHoN-46" value="" style="shape=flexArrow;endArrow=classic;html=1;fontFamily=Times New Roman;fontSize=20;width=7.5;endSize=7.986111111111111;endWidth=11.527777777777777;" parent="1" edge="1">
          <mxGeometry width="50" height="50" relative="1" as="geometry">
            <mxPoint x="757.5" y="1501" as="sourcePoint" />
            <mxPoint x="800.9999999999995" y="1501" as="targetPoint" />
          </mxGeometry>
        </mxCell>
        <mxCell id="LtJeP3wDyuZseLfdFHoN-47" value="BLSTM" style="rounded=0;whiteSpace=wrap;html=1;fillColor=none;fontFamily=Times New Roman;fontSize=20;strokeColor=#000000;" parent="1" vertex="1">
          <mxGeometry x="803" y="1572" width="73.5" height="27.5" as="geometry" />
        </mxCell>
        <mxCell id="LtJeP3wDyuZseLfdFHoN-48" value="" style="shape=flexArrow;endArrow=classic;html=1;fontFamily=Times New Roman;fontSize=20;width=7.5;endSize=7.986111111111111;endWidth=11.527777777777777;" parent="1" edge="1">
          <mxGeometry width="50" height="50" relative="1" as="geometry">
            <mxPoint x="757" y="1626.5" as="sourcePoint" />
            <mxPoint x="800.5" y="1626.5" as="targetPoint" />
          </mxGeometry>
        </mxCell>
        <mxCell id="LtJeP3wDyuZseLfdFHoN-49" value="" style="shape=flexArrow;endArrow=classic;html=1;fontFamily=Times New Roman;strokeColor=#000000;fontSize=20;" parent="1" edge="1">
          <mxGeometry width="50" height="50" relative="1" as="geometry">
            <mxPoint x="1375.5" y="1528.5" as="sourcePoint" />
            <mxPoint x="1404.5" y="1528.5" as="targetPoint" />
          </mxGeometry>
        </mxCell>
        <mxCell id="LtJeP3wDyuZseLfdFHoN-50" value="" style="shape=flexArrow;endArrow=classic;html=1;fontFamily=Times New Roman;strokeColor=#000000;fontSize=20;" parent="1" edge="1">
          <mxGeometry width="50" height="50" relative="1" as="geometry">
            <mxPoint x="529.9999999999991" y="1532.5" as="sourcePoint" />
            <mxPoint x="559" y="1532.5" as="targetPoint" />
          </mxGeometry>
        </mxCell>
        <mxCell id="LtJeP3wDyuZseLfdFHoN-51" value="" style="shape=flexArrow;endArrow=classic;html=1;fontFamily=Times New Roman;fontSize=20;" parent="1" edge="1">
          <mxGeometry width="50" height="50" relative="1" as="geometry">
            <mxPoint x="222.99999999999955" y="1533.5" as="sourcePoint" />
            <mxPoint x="252" y="1533.5" as="targetPoint" />
          </mxGeometry>
        </mxCell>
        <mxCell id="LtJeP3wDyuZseLfdFHoN-52" value="" style="shape=flexArrow;endArrow=classic;html=1;fontFamily=Times New Roman;fontSize=20;" parent="1" edge="1">
          <mxGeometry width="50" height="50" relative="1" as="geometry">
            <mxPoint x="351.99999999999955" y="1532.5" as="sourcePoint" />
            <mxPoint x="377" y="1532.5" as="targetPoint" />
          </mxGeometry>
        </mxCell>
        <mxCell id="LtJeP3wDyuZseLfdFHoN-53" value="&lt;b style=&quot;font-size: 20px;&quot;&gt;…&lt;/b&gt;" style="text;html=1;strokeColor=none;fillColor=none;align=center;verticalAlign=middle;whiteSpace=wrap;rounded=0;fontFamily=Times New Roman;fontSize=20;direction=west;rotation=90;" parent="1" vertex="1">
          <mxGeometry x="764" y="1572" width="40" height="10" as="geometry" />
        </mxCell>
        <mxCell id="LtJeP3wDyuZseLfdFHoN-54" value="" style="endArrow=classic;html=1;exitX=0.25;exitY=0;exitDx=0;exitDy=0;entryX=0.25;entryY=1;entryDx=0;entryDy=0;strokeColor=#000000;fontFamily=Times New Roman;fontSize=20;" parent="1" edge="1">
          <mxGeometry width="50" height="50" relative="1" as="geometry">
            <mxPoint x="820.75" y="1491.5" as="sourcePoint" />
            <mxPoint x="820.75" y="1477.5" as="targetPoint" />
          </mxGeometry>
        </mxCell>
        <mxCell id="LtJeP3wDyuZseLfdFHoN-55" value="" style="endArrow=classic;html=1;exitX=0.25;exitY=0;exitDx=0;exitDy=0;entryX=0.25;entryY=1;entryDx=0;entryDy=0;strokeColor=#000000;fontFamily=Times New Roman;fontSize=20;" parent="1" edge="1">
          <mxGeometry width="50" height="50" relative="1" as="geometry">
            <mxPoint x="820.25" y="1614.5" as="sourcePoint" />
            <mxPoint x="820.25" y="1600.5" as="targetPoint" />
          </mxGeometry>
        </mxCell>
        <mxCell id="LtJeP3wDyuZseLfdFHoN-56" value="" style="endArrow=classic;html=1;exitX=0.25;exitY=0;exitDx=0;exitDy=0;entryX=0.25;entryY=1;entryDx=0;entryDy=0;strokeColor=#000000;fontFamily=Times New Roman;fontSize=20;" parent="1" edge="1">
          <mxGeometry width="50" height="50" relative="1" as="geometry">
            <mxPoint x="860.2499999999995" y="1600.5" as="sourcePoint" />
            <mxPoint x="860.2499999999995" y="1614.5" as="targetPoint" />
          </mxGeometry>
        </mxCell>
        <mxCell id="LtJeP3wDyuZseLfdFHoN-57" value="" style="shape=flexArrow;endArrow=classic;html=1;fontFamily=Times New Roman;strokeColor=#000000;fontSize=20;" parent="1" edge="1">
          <mxGeometry width="50" height="50" relative="1" as="geometry">
            <mxPoint x="1672" y="1528.5" as="sourcePoint" />
            <mxPoint x="1701" y="1528.5" as="targetPoint" />
          </mxGeometry>
        </mxCell>
        <mxCell id="LtJeP3wDyuZseLfdFHoN-58" value="特征融合" style="text;html=1;strokeColor=none;fillColor=none;align=center;verticalAlign=middle;whiteSpace=wrap;rounded=0;fontSize=20;fontFamily=Times New Roman;" parent="1" vertex="1">
          <mxGeometry x="1418" y="1413.5" width="102.5" height="20" as="geometry" />
        </mxCell>
        <mxCell id="LtJeP3wDyuZseLfdFHoN-59" value="融合特征向量" style="rounded=1;whiteSpace=wrap;html=1;fillColor=none;fontSize=20;fontFamily=Times New Roman;strokeColor=#000000;" parent="1" vertex="1">
          <mxGeometry x="1551" y="1442" width="50" height="190" as="geometry" />
        </mxCell>
        <mxCell id="LtJeP3wDyuZseLfdFHoN-60" value="" style="shape=flexArrow;endArrow=classic;html=1;fontFamily=Times New Roman;strokeColor=#000000;fontSize=20;" parent="1" edge="1">
          <mxGeometry width="50" height="50" relative="1" as="geometry">
            <mxPoint x="1604" y="1528.5" as="sourcePoint" />
            <mxPoint x="1633" y="1528.5" as="targetPoint" />
          </mxGeometry>
        </mxCell>
        <mxCell id="LtJeP3wDyuZseLfdFHoN-61" value="" style="rounded=1;whiteSpace=wrap;html=1;fillColor=none;strokeWidth=2;fontFamily=Times New Roman;fontSize=20;" parent="1" vertex="1">
          <mxGeometry x="1400" y="1404.5" width="213" height="240" as="geometry" />
        </mxCell>
        <mxCell id="LtJeP3wDyuZseLfdFHoN-62" value="" style="rounded=1;whiteSpace=wrap;html=1;fillColor=none;strokeWidth=2;fontFamily=Times New Roman;fontSize=20;" parent="1" vertex="1">
          <mxGeometry x="1621" y="1402.5" width="132" height="240" as="geometry" />
        </mxCell>
        <mxCell id="LtJeP3wDyuZseLfdFHoN-63" value="&lt;font style=&quot;font-size: 20px;&quot;&gt;行为分类&lt;/font&gt;" style="text;html=1;strokeColor=none;fillColor=none;align=center;verticalAlign=middle;whiteSpace=wrap;rounded=0;fontFamily=Times New Roman;fontSize=20;" parent="1" vertex="1">
          <mxGeometry x="1626" y="1413.5" width="96.5" height="20" as="geometry" />
        </mxCell>
        <mxCell id="LtJeP3wDyuZseLfdFHoN-64" value="卷积" style="rounded=0;whiteSpace=wrap;html=1;fillColor=none;fontSize=20;fontFamily=Times New Roman;strokeColor=#000000;" parent="1" vertex="1">
          <mxGeometry x="252" y="1501.5" width="50" height="60" as="geometry" />
        </mxCell>
        <mxCell id="LtJeP3wDyuZseLfdFHoN-65" value="卷积" style="rounded=0;whiteSpace=wrap;html=1;fillColor=none;fontSize=20;fontFamily=Times New Roman;strokeColor=#000000;" parent="1" vertex="1">
          <mxGeometry x="426.5" y="1502" width="50" height="60" as="geometry" />
        </mxCell>
        <mxCell id="LtJeP3wDyuZseLfdFHoN-66" value="卷积" style="rounded=0;whiteSpace=wrap;html=1;fillColor=none;fontSize=20;fontFamily=Times New Roman;strokeColor=#000000;" parent="1" vertex="1">
          <mxGeometry x="377" y="1502" width="50" height="60" as="geometry" />
        </mxCell>
        <mxCell id="LtJeP3wDyuZseLfdFHoN-67" value="&lt;font style=&quot;font-size: 20px;&quot;&gt;256*12*200&lt;/font&gt;" style="text;html=1;align=center;verticalAlign=middle;resizable=0;points=[];autosize=1;fontFamily=Times New Roman;fontSize=20;" parent="1" vertex="1">
          <mxGeometry x="106.5" y="1487" width="120" height="30" as="geometry" />
        </mxCell>
        <mxCell id="LtJeP3wDyuZseLfdFHoN-68" value="" style="rounded=1;whiteSpace=wrap;html=1;fillColor=none;fontFamily=Times New Roman;fontSize=20;strokeColor=#000000;strokeWidth=2;" parent="1" vertex="1">
          <mxGeometry x="892.5" y="1392.75" width="215" height="260" as="geometry" />
        </mxCell>
        <mxCell id="LtJeP3wDyuZseLfdFHoN-69" value="&lt;font style=&quot;font-size: 20px;&quot;&gt;特征图&lt;br style=&quot;font-size: 20px;&quot;&gt;1&lt;/font&gt;" style="shape=cube;whiteSpace=wrap;html=1;boundedLbl=1;backgroundOutline=1;darkOpacity=0;darkOpacity2=0;fillColor=none;direction=south;size=11;fontFamily=Times New Roman;strokeColor=#000000;strokeWidth=1;fontSize=20;" parent="1" vertex="1">
          <mxGeometry x="929.5" y="1457.25" width="35" height="190" as="geometry" />
        </mxCell>
        <mxCell id="LtJeP3wDyuZseLfdFHoN-70" value="&lt;font style=&quot;font-size: 20px;&quot;&gt;特征图&lt;br style=&quot;font-size: 20px;&quot;&gt;&lt;i style=&quot;font-size: 20px;&quot;&gt;i&lt;/i&gt;&lt;/font&gt;" style="shape=cube;whiteSpace=wrap;html=1;boundedLbl=1;backgroundOutline=1;darkOpacity=0;darkOpacity2=0;fillColor=none;direction=south;size=11;fontStyle=0;fontFamily=Times New Roman;strokeColor=#000000;fontSize=20;" parent="1" vertex="1">
          <mxGeometry x="996.5" y="1457.25" width="35" height="190" as="geometry" />
        </mxCell>
        <mxCell id="LtJeP3wDyuZseLfdFHoN-71" value="&lt;font style=&quot;font-size: 20px;&quot;&gt;特征图&lt;br style=&quot;font-size: 20px;&quot;&gt;64&lt;br style=&quot;font-size: 20px;&quot;&gt;&lt;/font&gt;" style="shape=cube;whiteSpace=wrap;html=1;boundedLbl=1;backgroundOutline=1;darkOpacity=0;darkOpacity2=0;fillColor=none;direction=south;size=11;fontStyle=0;fontFamily=Times New Roman;strokeColor=#000000;fontSize=20;" parent="1" vertex="1">
          <mxGeometry x="1063.5" y="1457.25" width="35" height="190" as="geometry" />
        </mxCell>
        <mxCell id="LtJeP3wDyuZseLfdFHoN-72" value="" style="shape=curlyBracket;whiteSpace=wrap;html=1;rounded=1;fillColor=none;fontSize=20;fontFamily=Times New Roman;strokeColor=#000000;" parent="1" vertex="1">
          <mxGeometry x="903.5" y="1467.25" width="20" height="175" as="geometry" />
        </mxCell>
        <mxCell id="LtJeP3wDyuZseLfdFHoN-73" value="50" style="text;html=1;resizable=0;points=[];autosize=1;align=left;verticalAlign=top;spacingTop=-4;fontSize=20;fontFamily=Times New Roman;" parent="1" vertex="1">
          <mxGeometry x="891" y="1557.25" width="40" height="30" as="geometry" />
        </mxCell>
        <mxCell id="LtJeP3wDyuZseLfdFHoN-74" value="" style="shape=curlyBracket;whiteSpace=wrap;html=1;rounded=1;fillColor=none;fontSize=20;direction=south;fontFamily=Times New Roman;strokeColor=#000000;" parent="1" vertex="1">
          <mxGeometry x="935.5" y="1431.25" width="158" height="20" as="geometry" />
        </mxCell>
        <mxCell id="LtJeP3wDyuZseLfdFHoN-75" value="特征向量&amp;nbsp; 64" style="text;html=1;resizable=0;points=[];autosize=1;align=left;verticalAlign=top;spacingTop=-4;fontSize=20;fontFamily=Times New Roman;" parent="1" vertex="1">
          <mxGeometry x="912" y="1401.5" width="130" height="30" as="geometry" />
        </mxCell>
        <mxCell id="LtJeP3wDyuZseLfdFHoN-76" value="" style="endArrow=none;dashed=1;html=1;fontSize=20;entryX=0;entryY=0;entryDx=11;entryDy=35;entryPerimeter=0;exitX=0;exitY=0;exitDx=11;exitDy=35;exitPerimeter=0;fontFamily=Times New Roman;strokeColor=#000000;" parent="1" source="LtJeP3wDyuZseLfdFHoN-71" target="LtJeP3wDyuZseLfdFHoN-69" edge="1">
          <mxGeometry width="50" height="50" relative="1" as="geometry">
            <mxPoint x="686.5" y="1456.25" as="sourcePoint" />
            <mxPoint x="928.5" y="1462.25" as="targetPoint" />
          </mxGeometry>
        </mxCell>
        <mxCell id="LtJeP3wDyuZseLfdFHoN-77" value="" style="endArrow=none;dashed=1;html=1;fontSize=20;entryX=0;entryY=0;entryDx=0;entryDy=24;entryPerimeter=0;exitX=0;exitY=0;exitDx=0;exitDy=24;exitPerimeter=0;fontFamily=Times New Roman;strokeColor=#000000;" parent="1" source="LtJeP3wDyuZseLfdFHoN-71" target="LtJeP3wDyuZseLfdFHoN-69" edge="1">
          <mxGeometry width="50" height="50" relative="1" as="geometry">
            <mxPoint x="808.5" y="1472.25" as="sourcePoint" />
            <mxPoint x="858.5" y="1422.25" as="targetPoint" />
          </mxGeometry>
        </mxCell>
        <mxCell id="LtJeP3wDyuZseLfdFHoN-78" value="" style="endArrow=none;dashed=1;html=1;fontSize=20;entryX=0.149;entryY=1;entryDx=0;entryDy=0;entryPerimeter=0;exitX=0.149;exitY=0.286;exitDx=0;exitDy=0;exitPerimeter=0;fontFamily=Times New Roman;strokeColor=#000000;" parent="1" edge="1">
          <mxGeometry width="50" height="50" relative="1" as="geometry">
            <mxPoint x="1088.4899999999998" y="1488.56" as="sourcePoint" />
            <mxPoint x="929.5" y="1488.56" as="targetPoint" />
          </mxGeometry>
        </mxCell>
        <mxCell id="LtJeP3wDyuZseLfdFHoN-79" value="" style="endArrow=none;dashed=1;html=1;fontSize=20;entryX=0.112;entryY=0.009;entryDx=0;entryDy=0;entryPerimeter=0;exitX=0.114;exitY=0.743;exitDx=0;exitDy=0;exitPerimeter=0;fontFamily=Times New Roman;strokeColor=#000000;" parent="1" source="LtJeP3wDyuZseLfdFHoN-69" target="LtJeP3wDyuZseLfdFHoN-71" edge="1">
          <mxGeometry width="50" height="50" relative="1" as="geometry">
            <mxPoint x="828.5" y="1492.25" as="sourcePoint" />
            <mxPoint x="878.5" y="1442.25" as="targetPoint" />
          </mxGeometry>
        </mxCell>
        <mxCell id="LtJeP3wDyuZseLfdFHoN-80" value="" style="endArrow=none;dashed=1;html=1;fontSize=20;fontFamily=Times New Roman;strokeColor=#000000;" parent="1" edge="1">
          <mxGeometry width="50" height="50" relative="1" as="geometry">
            <mxPoint x="929.5" y="1627.25" as="sourcePoint" />
            <mxPoint x="1088.4999999999995" y="1627.25" as="targetPoint" />
          </mxGeometry>
        </mxCell>
        <mxCell id="LtJeP3wDyuZseLfdFHoN-81" value="" style="endArrow=none;dashed=1;html=1;fontSize=20;fontFamily=Times New Roman;strokeColor=#000000;" parent="1" edge="1">
          <mxGeometry width="50" height="50" relative="1" as="geometry">
            <mxPoint x="929.5" y="1647.25" as="sourcePoint" />
            <mxPoint x="1088.4999999999995" y="1647.25" as="targetPoint" />
          </mxGeometry>
        </mxCell>
        <mxCell id="LtJeP3wDyuZseLfdFHoN-82" value="" style="endArrow=none;dashed=1;html=1;fontSize=20;fontFamily=Times New Roman;strokeColor=#000000;" parent="1" edge="1">
          <mxGeometry width="50" height="50" relative="1" as="geometry">
            <mxPoint x="939.5" y="1617.25" as="sourcePoint" />
            <mxPoint x="1098.4999999999995" y="1617.25" as="targetPoint" />
          </mxGeometry>
        </mxCell>
        <mxCell id="LtJeP3wDyuZseLfdFHoN-83" value="" style="endArrow=none;html=1;fontSize=20;fontFamily=Times New Roman;strokeColor=#000000;" parent="1" edge="1">
          <mxGeometry width="50" height="50" relative="1" as="geometry">
            <mxPoint x="1088.4999999999995" y="1488.75" as="sourcePoint" />
            <mxPoint x="1098.4999999999995" y="1478.75" as="targetPoint" />
          </mxGeometry>
        </mxCell>
        <mxCell id="LtJeP3wDyuZseLfdFHoN-84" value="" style="endArrow=none;dashed=1;html=1;fontSize=20;fontFamily=Times New Roman;strokeColor=#000000;" parent="1" edge="1">
          <mxGeometry width="50" height="50" relative="1" as="geometry">
            <mxPoint x="929.5" y="1488.75" as="sourcePoint" />
            <mxPoint x="939.5" y="1478.75" as="targetPoint" />
          </mxGeometry>
        </mxCell>
        <mxCell id="LtJeP3wDyuZseLfdFHoN-85" value="" style="endArrow=none;dashed=1;html=1;fontSize=20;fontFamily=Times New Roman;strokeColor=#000000;" parent="1" edge="1">
          <mxGeometry width="50" height="50" relative="1" as="geometry">
            <mxPoint x="929.5" y="1627.25" as="sourcePoint" />
            <mxPoint x="939.5" y="1617.25" as="targetPoint" />
          </mxGeometry>
        </mxCell>
        <mxCell id="LtJeP3wDyuZseLfdFHoN-86" value="" style="endArrow=none;html=1;fontSize=20;fontFamily=Times New Roman;strokeColor=#000000;" parent="1" edge="1">
          <mxGeometry width="50" height="50" relative="1" as="geometry">
            <mxPoint x="1087.5" y="1627.25" as="sourcePoint" />
            <mxPoint x="1097.5" y="1617.25" as="targetPoint" />
          </mxGeometry>
        </mxCell>
        <mxCell id="LtJeP3wDyuZseLfdFHoN-87" value="" style="endArrow=none;dashed=1;html=1;fontSize=20;entryX=0.149;entryY=1;entryDx=0;entryDy=0;entryPerimeter=0;exitX=0.149;exitY=0.286;exitDx=0;exitDy=0;exitPerimeter=0;fontFamily=Times New Roman;strokeColor=#000000;" parent="1" edge="1">
          <mxGeometry width="50" height="50" relative="1" as="geometry">
            <mxPoint x="1087.5" y="1506.56" as="sourcePoint" />
            <mxPoint x="929.5" y="1506.56" as="targetPoint" />
          </mxGeometry>
        </mxCell>
        <mxCell id="LtJeP3wDyuZseLfdFHoN-88" value="&lt;b style=&quot;font-size: 20px;&quot;&gt;…&lt;/b&gt;" style="text;html=1;strokeColor=none;fillColor=none;align=center;verticalAlign=middle;whiteSpace=wrap;rounded=0;fontFamily=Times New Roman;fontSize=20;direction=west;" parent="1" vertex="1">
          <mxGeometry x="1023.5" y="1539.75" width="40" height="20" as="geometry" />
        </mxCell>
        <mxCell id="LtJeP3wDyuZseLfdFHoN-89" value="&lt;b style=&quot;font-size: 20px;&quot;&gt;…&lt;/b&gt;" style="text;html=1;strokeColor=none;fillColor=none;align=center;verticalAlign=middle;whiteSpace=wrap;rounded=0;fontFamily=Times New Roman;fontSize=20;direction=west;" parent="1" vertex="1">
          <mxGeometry x="957" y="1539.75" width="40" height="20" as="geometry" />
        </mxCell>
        <mxCell id="LtJeP3wDyuZseLfdFHoN-90" value="" style="shape=flexArrow;endArrow=classic;html=1;fontFamily=Times New Roman;strokeColor=#000000;fontSize=20;" parent="1" edge="1">
          <mxGeometry width="50" height="50" relative="1" as="geometry">
            <mxPoint x="868" y="1537.75" as="sourcePoint" />
            <mxPoint x="897" y="1537.75" as="targetPoint" />
          </mxGeometry>
        </mxCell>
        <mxCell id="LtJeP3wDyuZseLfdFHoN-91" value="" style="rounded=1;whiteSpace=wrap;html=1;fillColor=none;fontFamily=Times New Roman;fontSize=20;strokeColor=#000000;strokeWidth=2;" parent="1" vertex="1">
          <mxGeometry x="1164.75" y="1390" width="215" height="260" as="geometry" />
        </mxCell>
        <mxCell id="LtJeP3wDyuZseLfdFHoN-92" value="&lt;font style=&quot;font-size: 20px;&quot;&gt;特征图&lt;br style=&quot;font-size: 20px;&quot;&gt;1&lt;/font&gt;" style="shape=cube;whiteSpace=wrap;html=1;boundedLbl=1;backgroundOutline=1;darkOpacity=0;darkOpacity2=0;fillColor=none;direction=south;size=11;fontFamily=Times New Roman;strokeColor=#000000;strokeWidth=1;fontSize=20;" parent="1" vertex="1">
          <mxGeometry x="1201.75" y="1454.5" width="35" height="190" as="geometry" />
        </mxCell>
        <mxCell id="LtJeP3wDyuZseLfdFHoN-93" value="&lt;font style=&quot;font-size: 20px;&quot;&gt;特征图&lt;br style=&quot;font-size: 20px;&quot;&gt;&lt;i style=&quot;font-size: 20px;&quot;&gt;i&lt;/i&gt;&lt;/font&gt;" style="shape=cube;whiteSpace=wrap;html=1;boundedLbl=1;backgroundOutline=1;darkOpacity=0;darkOpacity2=0;fillColor=none;direction=south;size=11;fontStyle=0;fontFamily=Times New Roman;strokeColor=#000000;fontSize=20;" parent="1" vertex="1">
          <mxGeometry x="1268.75" y="1454.5" width="35" height="190" as="geometry" />
        </mxCell>
        <mxCell id="LtJeP3wDyuZseLfdFHoN-94" value="&lt;font style=&quot;font-size: 20px;&quot;&gt;特征图&lt;br style=&quot;font-size: 20px;&quot;&gt;160&lt;br style=&quot;font-size: 20px;&quot;&gt;&lt;/font&gt;" style="shape=cube;whiteSpace=wrap;html=1;boundedLbl=1;backgroundOutline=1;darkOpacity=0;darkOpacity2=0;fillColor=none;direction=south;size=11;fontStyle=0;fontFamily=Times New Roman;strokeColor=#000000;fontSize=20;" parent="1" vertex="1">
          <mxGeometry x="1335.75" y="1454.5" width="35" height="190" as="geometry" />
        </mxCell>
        <mxCell id="LtJeP3wDyuZseLfdFHoN-95" value="" style="shape=curlyBracket;whiteSpace=wrap;html=1;rounded=1;fillColor=none;fontSize=20;fontFamily=Times New Roman;strokeColor=#000000;" parent="1" vertex="1">
          <mxGeometry x="1175.75" y="1464.5" width="20" height="175" as="geometry" />
        </mxCell>
        <mxCell id="LtJeP3wDyuZseLfdFHoN-96" value="50" style="text;html=1;resizable=0;points=[];autosize=1;align=left;verticalAlign=top;spacingTop=-4;fontSize=20;fontFamily=Times New Roman;" parent="1" vertex="1">
          <mxGeometry x="1163.25" y="1554.5" width="40" height="30" as="geometry" />
        </mxCell>
        <mxCell id="LtJeP3wDyuZseLfdFHoN-97" value="" style="shape=curlyBracket;whiteSpace=wrap;html=1;rounded=1;fillColor=none;fontSize=20;direction=south;fontFamily=Times New Roman;strokeColor=#000000;" parent="1" vertex="1">
          <mxGeometry x="1207.75" y="1428.5" width="158" height="20" as="geometry" />
        </mxCell>
        <mxCell id="LtJeP3wDyuZseLfdFHoN-98" value="特征向量&amp;nbsp; 160" style="text;html=1;resizable=0;points=[];autosize=1;align=left;verticalAlign=top;spacingTop=-4;fontSize=20;fontFamily=Times New Roman;" parent="1" vertex="1">
          <mxGeometry x="1179.25" y="1396.5" width="140" height="30" as="geometry" />
        </mxCell>
        <mxCell id="LtJeP3wDyuZseLfdFHoN-99" value="" style="endArrow=none;dashed=1;html=1;fontSize=20;entryX=0;entryY=0;entryDx=11;entryDy=35;entryPerimeter=0;exitX=0;exitY=0;exitDx=11;exitDy=35;exitPerimeter=0;fontFamily=Times New Roman;strokeColor=#000000;" parent="1" source="LtJeP3wDyuZseLfdFHoN-94" target="LtJeP3wDyuZseLfdFHoN-92" edge="1">
          <mxGeometry width="50" height="50" relative="1" as="geometry">
            <mxPoint x="958.75" y="1453.5" as="sourcePoint" />
            <mxPoint x="1200.75" y="1459.5" as="targetPoint" />
          </mxGeometry>
        </mxCell>
        <mxCell id="LtJeP3wDyuZseLfdFHoN-100" value="" style="endArrow=none;dashed=1;html=1;fontSize=20;entryX=0;entryY=0;entryDx=0;entryDy=24;entryPerimeter=0;exitX=0;exitY=0;exitDx=0;exitDy=24;exitPerimeter=0;fontFamily=Times New Roman;strokeColor=#000000;" parent="1" source="LtJeP3wDyuZseLfdFHoN-94" target="LtJeP3wDyuZseLfdFHoN-92" edge="1">
          <mxGeometry width="50" height="50" relative="1" as="geometry">
            <mxPoint x="1080.75" y="1469.5" as="sourcePoint" />
            <mxPoint x="1130.75" y="1419.5" as="targetPoint" />
          </mxGeometry>
        </mxCell>
        <mxCell id="LtJeP3wDyuZseLfdFHoN-101" value="" style="endArrow=none;dashed=1;html=1;fontSize=20;entryX=0.149;entryY=1;entryDx=0;entryDy=0;entryPerimeter=0;exitX=0.149;exitY=0.286;exitDx=0;exitDy=0;exitPerimeter=0;fontFamily=Times New Roman;strokeColor=#000000;" parent="1" edge="1">
          <mxGeometry width="50" height="50" relative="1" as="geometry">
            <mxPoint x="1360.7400000000002" y="1485.81" as="sourcePoint" />
            <mxPoint x="1201.75" y="1485.81" as="targetPoint" />
          </mxGeometry>
        </mxCell>
        <mxCell id="LtJeP3wDyuZseLfdFHoN-102" value="" style="endArrow=none;dashed=1;html=1;fontSize=20;entryX=0.112;entryY=0.009;entryDx=0;entryDy=0;entryPerimeter=0;exitX=0.114;exitY=0.743;exitDx=0;exitDy=0;exitPerimeter=0;fontFamily=Times New Roman;strokeColor=#000000;" parent="1" source="LtJeP3wDyuZseLfdFHoN-92" target="LtJeP3wDyuZseLfdFHoN-94" edge="1">
          <mxGeometry width="50" height="50" relative="1" as="geometry">
            <mxPoint x="1100.75" y="1489.5" as="sourcePoint" />
            <mxPoint x="1150.75" y="1439.5" as="targetPoint" />
          </mxGeometry>
        </mxCell>
        <mxCell id="LtJeP3wDyuZseLfdFHoN-103" value="" style="endArrow=none;dashed=1;html=1;fontSize=20;fontFamily=Times New Roman;strokeColor=#000000;" parent="1" edge="1">
          <mxGeometry width="50" height="50" relative="1" as="geometry">
            <mxPoint x="1201.75" y="1624.5" as="sourcePoint" />
            <mxPoint x="1360.75" y="1624.5" as="targetPoint" />
          </mxGeometry>
        </mxCell>
        <mxCell id="LtJeP3wDyuZseLfdFHoN-104" value="" style="endArrow=none;dashed=1;html=1;fontSize=20;fontFamily=Times New Roman;strokeColor=#000000;" parent="1" edge="1">
          <mxGeometry width="50" height="50" relative="1" as="geometry">
            <mxPoint x="1201.75" y="1644.5" as="sourcePoint" />
            <mxPoint x="1360.75" y="1644.5" as="targetPoint" />
          </mxGeometry>
        </mxCell>
        <mxCell id="LtJeP3wDyuZseLfdFHoN-105" value="" style="endArrow=none;dashed=1;html=1;fontSize=20;fontFamily=Times New Roman;strokeColor=#000000;" parent="1" edge="1">
          <mxGeometry width="50" height="50" relative="1" as="geometry">
            <mxPoint x="1211.75" y="1614.5" as="sourcePoint" />
            <mxPoint x="1370.75" y="1614.5" as="targetPoint" />
          </mxGeometry>
        </mxCell>
        <mxCell id="LtJeP3wDyuZseLfdFHoN-106" value="" style="endArrow=none;html=1;fontSize=20;fontFamily=Times New Roman;strokeColor=#000000;" parent="1" edge="1">
          <mxGeometry width="50" height="50" relative="1" as="geometry">
            <mxPoint x="1360.75" y="1486" as="sourcePoint" />
            <mxPoint x="1370.75" y="1476" as="targetPoint" />
          </mxGeometry>
        </mxCell>
        <mxCell id="LtJeP3wDyuZseLfdFHoN-107" value="" style="endArrow=none;dashed=1;html=1;fontSize=20;fontFamily=Times New Roman;strokeColor=#000000;" parent="1" edge="1">
          <mxGeometry width="50" height="50" relative="1" as="geometry">
            <mxPoint x="1201.75" y="1486" as="sourcePoint" />
            <mxPoint x="1211.75" y="1476" as="targetPoint" />
          </mxGeometry>
        </mxCell>
        <mxCell id="LtJeP3wDyuZseLfdFHoN-108" value="" style="endArrow=none;dashed=1;html=1;fontSize=20;fontFamily=Times New Roman;strokeColor=#000000;" parent="1" edge="1">
          <mxGeometry width="50" height="50" relative="1" as="geometry">
            <mxPoint x="1201.75" y="1624.5" as="sourcePoint" />
            <mxPoint x="1211.75" y="1614.5" as="targetPoint" />
          </mxGeometry>
        </mxCell>
        <mxCell id="LtJeP3wDyuZseLfdFHoN-109" value="" style="endArrow=none;html=1;fontSize=20;fontFamily=Times New Roman;strokeColor=#000000;" parent="1" edge="1">
          <mxGeometry width="50" height="50" relative="1" as="geometry">
            <mxPoint x="1359.7500000000005" y="1624.5" as="sourcePoint" />
            <mxPoint x="1369.7500000000005" y="1614.5" as="targetPoint" />
          </mxGeometry>
        </mxCell>
        <mxCell id="LtJeP3wDyuZseLfdFHoN-110" value="" style="endArrow=none;dashed=1;html=1;fontSize=20;entryX=0.149;entryY=1;entryDx=0;entryDy=0;entryPerimeter=0;exitX=0.149;exitY=0.286;exitDx=0;exitDy=0;exitPerimeter=0;fontFamily=Times New Roman;strokeColor=#000000;" parent="1" edge="1">
          <mxGeometry width="50" height="50" relative="1" as="geometry">
            <mxPoint x="1359.7500000000005" y="1503.81" as="sourcePoint" />
            <mxPoint x="1201.75" y="1503.81" as="targetPoint" />
          </mxGeometry>
        </mxCell>
        <mxCell id="LtJeP3wDyuZseLfdFHoN-111" value="&lt;b style=&quot;font-size: 20px;&quot;&gt;…&lt;/b&gt;" style="text;html=1;strokeColor=none;fillColor=none;align=center;verticalAlign=middle;whiteSpace=wrap;rounded=0;fontFamily=Times New Roman;fontSize=20;direction=west;" parent="1" vertex="1">
          <mxGeometry x="1295.75" y="1537" width="40" height="20" as="geometry" />
        </mxCell>
        <mxCell id="LtJeP3wDyuZseLfdFHoN-112" value="&lt;b style=&quot;font-size: 20px;&quot;&gt;…&lt;/b&gt;" style="text;html=1;strokeColor=none;fillColor=none;align=center;verticalAlign=middle;whiteSpace=wrap;rounded=0;fontFamily=Times New Roman;fontSize=20;direction=west;" parent="1" vertex="1">
          <mxGeometry x="1229.25" y="1537" width="40" height="20" as="geometry" />
        </mxCell>
        <mxCell id="LtJeP3wDyuZseLfdFHoN-113" value="&lt;font style=&quot;font-size: 20px;&quot;&gt;转置&lt;/font&gt;" style="text;html=1;align=center;verticalAlign=middle;resizable=0;points=[];autosize=1;fontFamily=Times New Roman;fontSize=20;" parent="1" vertex="1">
          <mxGeometry x="698" y="1717" width="60" height="30" as="geometry" />
        </mxCell>
        <mxCell id="LtJeP3wDyuZseLfdFHoN-114" value="&lt;font style=&quot;font-size: 20px;&quot;&gt;转置&lt;/font&gt;" style="text;html=1;align=center;verticalAlign=middle;resizable=0;points=[];autosize=1;fontFamily=Times New Roman;fontSize=20;" parent="1" vertex="1">
          <mxGeometry x="698" y="1662" width="60" height="30" as="geometry" />
        </mxCell>
        <mxCell id="LtJeP3wDyuZseLfdFHoN-115" value="&lt;font style=&quot;font-size: 20px&quot;&gt;concat&lt;/font&gt;" style="text;html=1;align=center;verticalAlign=middle;resizable=0;points=[];autosize=1;fontFamily=Times New Roman;fontSize=20;" parent="1" vertex="1">
          <mxGeometry x="1101.5" y="1491.5" width="70" height="30" as="geometry" />
        </mxCell>
        <mxCell id="LtJeP3wDyuZseLfdFHoN-116" value="256*64*50" style="text;html=1;strokeColor=none;fillColor=none;align=center;verticalAlign=middle;whiteSpace=wrap;rounded=0;fontSize=20;fontFamily=Times New Roman;" parent="1" vertex="1">
          <mxGeometry x="403" y="1722" width="124" height="20" as="geometry" />
        </mxCell>
        <mxCell id="LtJeP3wDyuZseLfdFHoN-117" value="" style="shape=flexArrow;endArrow=classic;html=1;endWidth=37.142857142857146;endSize=11.285714285714286;width=20;fontFamily=Times New Roman;fontSize=20;" parent="1" edge="1">
          <mxGeometry width="50" height="50" relative="1" as="geometry">
            <mxPoint x="1105" y="1546.29" as="sourcePoint" />
            <mxPoint x="1175" y="1546.29" as="targetPoint" />
          </mxGeometry>
        </mxCell>
        <mxCell id="LtJeP3wDyuZseLfdFHoN-118" value="BLSTM" style="rounded=0;whiteSpace=wrap;html=1;fillColor=none;fontFamily=Times New Roman;fontSize=20;strokeColor=#000000;" parent="1" vertex="1">
          <mxGeometry x="803" y="1615.75" width="73.5" height="27.5" as="geometry" />
        </mxCell>
        <mxCell id="LtJeP3wDyuZseLfdFHoN-119" value="BLSTM" style="rounded=0;whiteSpace=wrap;html=1;fillColor=none;fontFamily=Times New Roman;fontSize=20;strokeColor=#000000;" parent="1" vertex="1">
          <mxGeometry x="803" y="1448.5" width="73.5" height="27.5" as="geometry" />
        </mxCell>
        <mxCell id="LtJeP3wDyuZseLfdFHoN-120" value="BLSTM" style="rounded=0;whiteSpace=wrap;html=1;fillColor=none;fontFamily=Times New Roman;fontSize=20;strokeColor=#000000;" parent="1" vertex="1">
          <mxGeometry x="803" y="1491.5" width="73.5" height="27.5" as="geometry" />
        </mxCell>
        <mxCell id="LtJeP3wDyuZseLfdFHoN-130" value="多尺度特征结合" style="rounded=1;whiteSpace=wrap;html=1;fillColor=none;fontSize=20;fontFamily=Times New Roman;strokeColor=#000000;" parent="1" vertex="1">
          <mxGeometry x="602" y="388.75" width="50" height="190" as="geometry" />
        </mxCell>
        <mxCell id="LtJeP3wDyuZseLfdFHoN-131" value="位置行为轨迹特征" style="rounded=1;whiteSpace=wrap;html=1;fillColor=none;fontSize=20;fontFamily=Times New Roman;strokeColor=#000000;" parent="1" vertex="1">
          <mxGeometry x="1078" y="420" width="50" height="190" as="geometry" />
        </mxCell>
        <mxCell id="LtJeP3wDyuZseLfdFHoN-133" value="" style="shape=cross;whiteSpace=wrap;html=1;fillColor=none;fontSize=20;fontFamily=Times New Roman;strokeColor=#000000;" parent="1" vertex="1">
          <mxGeometry x="1043.75" y="487.5" width="30" height="35" as="geometry" />
        </mxCell>
        <mxCell id="LtJeP3wDyuZseLfdFHoN-142" value="" style="edgeStyle=orthogonalEdgeStyle;rounded=0;orthogonalLoop=1;jettySize=auto;html=1;entryX=0.02;entryY=0.926;entryDx=0;entryDy=0;entryPerimeter=0;" parent="1" source="LtJeP3wDyuZseLfdFHoN-140" target="LtJeP3wDyuZseLfdFHoN-145" edge="1">
          <mxGeometry relative="1" as="geometry">
            <mxPoint x="1310" y="676" as="targetPoint" />
          </mxGeometry>
        </mxCell>
        <mxCell id="LtJeP3wDyuZseLfdFHoN-140" value="行为概率矩阵" style="rounded=0;whiteSpace=wrap;html=1;fillColor=none;fontSize=20;fontFamily=Times New Roman;strokeColor=#000000;" parent="1" vertex="1">
          <mxGeometry x="-11.5" y="644.5" width="118" height="62.5" as="geometry" />
        </mxCell>
        <mxCell id="LtJeP3wDyuZseLfdFHoN-143" value="&lt;font style=&quot;font-size: 20px&quot;&gt;输入位置、时间&lt;/font&gt;" style="text;html=1;align=center;verticalAlign=middle;resizable=0;points=[];autosize=1;" parent="1" vertex="1">
          <mxGeometry x="-30" y="619" width="160" height="20" as="geometry" />
        </mxCell>
        <mxCell id="LtJeP3wDyuZseLfdFHoN-145" value="决策融合" style="rounded=1;whiteSpace=wrap;html=1;fillColor=none;fontSize=20;fontFamily=Times New Roman;strokeColor=#000000;" parent="1" vertex="1">
          <mxGeometry x="1319" y="500" width="50" height="190" as="geometry" />
        </mxCell>
        <mxCell id="LtJeP3wDyuZseLfdFHoN-146" value="" style="endArrow=classic;html=1;entryX=0;entryY=0.068;entryDx=0;entryDy=0;entryPerimeter=0;" parent="1" target="LtJeP3wDyuZseLfdFHoN-145" edge="1">
          <mxGeometry width="50" height="50" relative="1" as="geometry">
            <mxPoint x="1290.75" y="512.76" as="sourcePoint" />
            <mxPoint x="1307.75" y="512.9200000000001" as="targetPoint" />
          </mxGeometry>
        </mxCell>
        <mxCell id="LtJeP3wDyuZseLfdFHoN-147" value="" style="shape=flexArrow;endArrow=classic;html=1;fontFamily=Times New Roman;strokeColor=#000000;fontSize=20;" parent="1" edge="1">
          <mxGeometry width="50" height="50" relative="1" as="geometry">
            <mxPoint x="1214.75" y="511" as="sourcePoint" />
            <mxPoint x="1243.7499999999995" y="511" as="targetPoint" />
          </mxGeometry>
        </mxCell>
        <mxCell id="LtJeP3wDyuZseLfdFHoN-150" value="" style="shape=flexArrow;endArrow=classic;html=1;fontFamily=Times New Roman;strokeColor=#000000;fontSize=20;" parent="1" edge="1">
          <mxGeometry width="50" height="50" relative="1" as="geometry">
            <mxPoint x="1367" y="594.66" as="sourcePoint" />
            <mxPoint x="1395.9999999999995" y="594.66" as="targetPoint" />
          </mxGeometry>
        </mxCell>
        <mxCell id="LtJeP3wDyuZseLfdFHoN-153" value="" style="shape=flexArrow;endArrow=classic;html=1;fontFamily=Times New Roman;strokeColor=#000000;fontSize=20;" parent="1" edge="1">
          <mxGeometry width="50" height="50" relative="1" as="geometry">
            <mxPoint x="646" y="483.15999999999985" as="sourcePoint" />
            <mxPoint x="674.9999999999995" y="483.15999999999985" as="targetPoint" />
          </mxGeometry>
        </mxCell>
        <mxCell id="LtJeP3wDyuZseLfdFHoN-156" value="" style="shape=ext;double=1;whiteSpace=wrap;html=1;aspect=fixed;" parent="1" vertex="1">
          <mxGeometry x="1010" y="2400" width="80" height="80" as="geometry" />
        </mxCell>
        <mxCell id="LtJeP3wDyuZseLfdFHoN-157" value="" style="ellipse;shape=doubleEllipse;whiteSpace=wrap;html=1;" parent="1" vertex="1">
          <mxGeometry x="1053" y="2420" width="100" height="60" as="geometry" />
        </mxCell>
        <mxCell id="LtJeP3wDyuZseLfdFHoN-158" value="Text" style="text;html=1;align=center;verticalAlign=middle;resizable=0;points=[];autosize=1;" parent="1" vertex="1">
          <mxGeometry x="416" y="2271" width="40" height="20" as="geometry" />
        </mxCell>
        <mxCell id="hH3kJJyUQDN1Ja69w0EZ-1" value="持续时间检验与修正" style="rounded=1;whiteSpace=wrap;html=1;fillColor=none;fontSize=20;fontFamily=Times New Roman;strokeColor=#000000;" vertex="1" parent="1">
          <mxGeometry x="1467.5" y="500" width="50" height="190" as="geometry" />
        </mxCell>
        <mxCell id="hH3kJJyUQDN1Ja69w0EZ-2" value="最终行为类别输出" style="rounded=1;whiteSpace=wrap;html=1;fillColor=none;fontSize=20;fontFamily=Times New Roman;strokeColor=#000000;" vertex="1" parent="1">
          <mxGeometry x="1544" y="500" width="50" height="190" as="geometry" />
        </mxCell>
        <mxCell id="hH3kJJyUQDN1Ja69w0EZ-5" value="" style="shape=flexArrow;endArrow=classic;html=1;fontFamily=Times New Roman;strokeColor=#000000;fontSize=20;" edge="1" parent="1">
          <mxGeometry width="50" height="50" relative="1" as="geometry">
            <mxPoint x="1441.5" y="594.76" as="sourcePoint" />
            <mxPoint x="1470.4999999999995" y="594.76" as="targetPoint" />
          </mxGeometry>
        </mxCell>
        <mxCell id="hH3kJJyUQDN1Ja69w0EZ-6" value="" style="shape=flexArrow;endArrow=classic;html=1;fontFamily=Times New Roman;strokeColor=#000000;fontSize=20;" edge="1" parent="1">
          <mxGeometry width="50" height="50" relative="1" as="geometry">
            <mxPoint x="1518.5" y="594.76" as="sourcePoint" />
            <mxPoint x="1547.4999999999995" y="594.76" as="targetPoint" />
          </mxGeometry>
        </mxCell>
      </root>
    </mxGraphModel>
  </diagram>
</mxfile>
